<svg
  xmlns="http://www.w3.org/2000/svg"
  width="24"
  height="24"
  viewBox="0 0 24 24"
  fill="none"
>
  <g clipPath="url(#clip0_5_3866)">
    <path
      fillRule="evenodd"
      clip-rule="evenodd"
      d="M14.958 7.40981C17.2466 9.8063 17.1591 13.6043 14.7626 15.8928C12.3661 18.1814 8.56816 18.0939 6.2796 15.6974C3.99103 13.301 4.07852 9.50298 6.475 7.21441C8.87148 4.92585 12.6695 5.01333 14.958 7.40981ZM16.8244 16.6039C19.3385 13.5225 19.222 8.97893 16.4044 6.02854C13.353 2.83323 8.28904 2.71659 5.09373 5.76801C1.89842 8.81943 1.78177 13.8834 4.83319 17.0787C7.65072 20.0291 12.1841 20.3547 15.378 17.9851L17.4926 20.1995C17.874 20.5989 18.507 20.6135 18.9064 20.2321C19.3059 19.8506 19.3204 19.2176 18.939 18.8182L16.8244 16.6039Z"
      fill="#B2B2B2"
    />
  </g>
  <!-- <defs>
    <clipPath id="clip0_5_3866">
      <rect width="24" height="24" fill="white" />
    </clipPath>
  </defs> -->
</svg>