<svg width="49" height="49" viewBox="0 0 49 49" fill="none" xmlns="http://www.w3.org/2000/svg">
<path opacity="0.98" fill-rule="evenodd" clip-rule="evenodd" d="M11.0097 6.70777C16.2253 5.92523 20.6375 7.35316 24.2456 10.9916C29.0266 6.55215 34.4644 5.63418 40.5597 8.23772C45.566 12.3857 46.7972 17.4853 44.2535 23.5372C39.3506 30.6551 33.3994 36.7749 26.4003 41.8966C25.1691 42.3048 23.9378 42.3048 22.7066 41.8966C15.6355 36.7027 9.58195 30.4807 4.54564 23.2312C1.9804 15.7088 4.13508 10.2009 11.0097 6.70777Z" fill="#42B8C3"/>
<path fill-rule="evenodd" clip-rule="evenodd" d="M31.0984 16.2899C31.0984 16.2899 31.637 16.8305 32 17.375C32.75 18.5 34.25 20.75 34.25 20.75C34.25 20.75 39.125 20.75 42.1797 20.5737C42.1797 21.3895 42.125 21.4342 42.125 22.25C39.125 22.1037 36.5 22.25 33.5 22.25C33.1485 21.5125 32.5238 20.3552 32.0547 19.6649C32.1111 19.735 31.9724 19.4208 31.7141 20.2678C30.9892 22.6438 30.215 25.0039 29.2516 27.3055C28.4309 26.0816 27.6253 25.0138 26.8047 23.7899C25.595 26.9452 24.7581 30.0533 24.3266 33.4253C23.6032 33.5593 22.9876 33.3555 22.4797 32.8133C21.555 28.7339 19.9265 24.8533 18.4265 21.1814C17.6765 23.2869 17.2406 24.914 16.625 26.75C14.3379 26.7028 11.7913 26.6935 9.49998 26.6935C9.49998 25.8778 9.55155 25.6734 9.55155 24.8576C11.75 24.9292 13.4186 24.8821 15.5 24.8576C15.9297 23.0399 17.1156 20.789 17.75 17.75C18.125 18.125 18.4983 18.2471 18.875 18.875C21.125 22.625 23.4031 29.1414 23.4031 29.1414C23.4031 29.1414 25.3047 23.4149 25.625 20.8042C26.7891 21.5399 28.9437 24.2456 28.9437 24.2456L31.0984 16.2899Z" fill="#E4F8F3"/>
</svg>
