<svg width="171" height="58" viewBox="0 0 171 58" fill="none" xmlns="http://www.w3.org/2000/svg">
<path opacity="0.98" fill-rule="evenodd" clip-rule="evenodd" d="M8.32018 14.9145C12.4492 14.295 15.9422 15.4254 18.7986 18.3059C22.5835 14.7913 26.8885 14.0646 31.7139 16.1257C35.6772 19.4095 36.652 23.4467 34.6382 28.2378C30.7567 33.8728 26.0453 38.7176 20.5044 42.7723C19.5297 43.0954 18.5549 43.0954 17.5802 42.7723C11.9823 38.6605 7.18988 33.7347 3.2028 27.9955C1.17198 22.0403 2.87777 17.6799 8.32018 14.9145Z" fill="#42B8C3"/>
<path fill-rule="evenodd" clip-rule="evenodd" d="M24.2238 22.5002C24.2238 22.5002 24.6502 22.9283 24.9375 23.3593C25.5312 24.2499 26.7188 26.0311 26.7188 26.0311C26.7188 26.0311 30.5781 26.0311 32.9964 25.8916C32.9964 26.5374 32.9531 26.5728 32.9531 27.2186C30.5781 27.1028 28.5 27.2186 26.125 27.2186C25.8467 26.6348 25.3522 25.7186 24.9808 25.1721C25.0255 25.2276 24.9157 24.9789 24.7111 25.6494C24.1373 27.5305 23.5244 29.3988 22.7617 31.2209C22.112 30.252 21.4742 29.4067 20.8245 28.4377C19.8669 30.9357 19.2043 33.3963 18.8627 36.0658C18.29 36.1719 17.8027 36.0105 17.4006 35.5813C16.6686 32.3517 15.3794 29.2796 14.1919 26.3727C13.5981 28.0395 13.253 29.3277 12.7656 30.7811C10.955 30.7438 8.93897 30.7365 7.125 30.7365C7.125 30.0906 7.16582 29.9288 7.16582 29.283C8.90625 29.3397 10.2272 29.3024 11.875 29.283C12.2152 27.844 13.154 26.0621 13.6562 23.6561C13.9531 23.953 14.2486 24.0497 14.5469 24.5468C16.3281 27.5155 18.1316 32.6744 18.1316 32.6744C18.1316 32.6744 19.637 28.1409 19.8906 26.0741C20.8122 26.6565 22.518 28.7985 22.518 28.7985L24.2238 22.5002Z" fill="#E4F8F3"/>
<path d="M48.608 23.8H51.776V35H48.608V23.8ZM44.288 35H41.12V23.8H44.288V35ZM48.832 30.632H44.064V28.008H48.832V30.632ZM58.5106 35.144C57.4866 35.144 56.5906 34.952 55.8226 34.568C55.0653 34.1733 54.4733 33.64 54.0466 32.968C53.6306 32.2853 53.4226 31.512 53.4226 30.648C53.4226 29.784 53.6253 29.016 54.0306 28.344C54.4466 27.6613 55.0173 27.1333 55.7426 26.76C56.468 26.376 57.284 26.184 58.1906 26.184C59.044 26.184 59.8226 26.36 60.5266 26.712C61.2306 27.0533 61.7906 27.56 62.2066 28.232C62.6226 28.904 62.8306 29.72 62.8306 30.68C62.8306 30.7867 62.8253 30.9093 62.8146 31.048C62.804 31.1867 62.7933 31.3147 62.7826 31.432H55.9186V29.832H61.1666L60.0146 30.28C60.0253 29.8853 59.9506 29.544 59.7906 29.256C59.6413 28.968 59.428 28.744 59.1506 28.584C58.884 28.424 58.5693 28.344 58.2066 28.344C57.844 28.344 57.524 28.424 57.2466 28.584C56.98 28.744 56.772 28.9733 56.6226 29.272C56.4733 29.56 56.3986 29.9013 56.3986 30.296V30.76C56.3986 31.1867 56.484 31.5547 56.6546 31.864C56.836 32.1733 57.092 32.4133 57.4226 32.584C57.7533 32.744 58.148 32.824 58.6066 32.824C59.0333 32.824 59.396 32.7653 59.6946 32.648C60.004 32.52 60.308 32.328 60.6066 32.072L62.2066 33.736C61.7906 34.1947 61.2786 34.5467 60.6706 34.792C60.0626 35.0267 59.3426 35.144 58.5106 35.144ZM69.3939 35V33.384L69.1859 32.984V30.008C69.1859 29.528 69.0365 29.16 68.7379 28.904C68.4499 28.6373 67.9859 28.504 67.3459 28.504C66.9299 28.504 66.5085 28.5733 66.0819 28.712C65.6552 28.84 65.2925 29.0213 64.9939 29.256L63.9699 27.192C64.4605 26.872 65.0472 26.6267 65.7299 26.456C66.4232 26.2747 67.1112 26.184 67.7939 26.184C69.2019 26.184 70.2899 26.5093 71.0579 27.16C71.8365 27.8 72.2259 28.808 72.2259 30.184V35H69.3939ZM66.8339 35.144C66.1405 35.144 65.5539 35.0267 65.0739 34.792C64.5939 34.5573 64.2259 34.2373 63.9699 33.832C63.7245 33.4267 63.6019 32.9733 63.6019 32.472C63.6019 31.9387 63.7352 31.48 64.0019 31.096C64.2792 30.7013 64.7005 30.4027 65.2659 30.2C65.8312 29.9867 66.5619 29.88 67.4579 29.88H69.5059V31.464H67.8739C67.3832 31.464 67.0365 31.544 66.8339 31.704C66.6419 31.864 66.5459 32.0773 66.5459 32.344C66.5459 32.6107 66.6472 32.824 66.8499 32.984C67.0525 33.144 67.3299 33.224 67.6819 33.224C68.0125 33.224 68.3112 33.144 68.5779 32.984C68.8552 32.8133 69.0579 32.5573 69.1859 32.216L69.6019 33.336C69.4419 33.9333 69.1272 34.3867 68.6579 34.696C68.1992 34.9947 67.5912 35.144 66.8339 35.144ZM74.2447 35V23.128H77.2847V35H74.2447ZM84.1074 35.144C82.998 35.144 82.134 34.872 81.5154 34.328C80.8967 33.7733 80.5874 32.9413 80.5874 31.832V24.392H83.6274V31.8C83.6274 32.1093 83.7127 32.3547 83.8834 32.536C84.054 32.7067 84.2727 32.792 84.5394 32.792C84.902 32.792 85.2114 32.7013 85.4674 32.52L86.2194 34.648C85.9634 34.8187 85.6487 34.9413 85.2754 35.016C84.902 35.1013 84.5127 35.144 84.1074 35.144ZM79.3234 28.92V26.648H85.6114V28.92H79.3234ZM93.1396 26.184C93.8116 26.184 94.4196 26.3227 94.9636 26.6C95.5076 26.8667 95.9343 27.2827 96.2436 27.848C96.5636 28.4133 96.7236 29.144 96.7236 30.04V35H93.6836V30.536C93.6836 29.9173 93.5556 29.4693 93.2996 29.192C93.0543 28.904 92.7076 28.76 92.2596 28.76C91.9396 28.76 91.6463 28.8347 91.3796 28.984C91.113 29.1227 90.905 29.3413 90.7556 29.64C90.6063 29.9387 90.5316 30.328 90.5316 30.808V35H87.4916V23.128H90.5316V28.792L89.8276 28.072C90.1583 27.4427 90.6116 26.9733 91.1876 26.664C91.7636 26.344 92.4143 26.184 93.1396 26.184ZM98.8762 35V23.8H104.604C106.076 23.8 107.175 24.072 107.9 24.616C108.626 25.1493 108.988 25.8533 108.988 26.728C108.988 27.304 108.834 27.8107 108.524 28.248C108.226 28.6747 107.799 29.016 107.244 29.272C106.7 29.5173 106.05 29.64 105.292 29.64L105.612 28.872C106.402 28.872 107.09 28.9947 107.676 29.24C108.263 29.4747 108.716 29.8213 109.036 30.28C109.367 30.728 109.532 31.2773 109.532 31.928C109.532 32.8987 109.138 33.656 108.348 34.2C107.57 34.7333 106.428 35 104.924 35H98.8762ZM102.012 32.712H104.668C105.212 32.712 105.623 32.6213 105.9 32.44C106.188 32.248 106.332 31.96 106.332 31.576C106.332 31.192 106.188 30.9093 105.9 30.728C105.623 30.536 105.212 30.44 104.668 30.44H101.788V28.248H104.188C104.722 28.248 105.122 28.1573 105.388 27.976C105.655 27.7947 105.788 27.5227 105.788 27.16C105.788 26.7973 105.655 26.5307 105.388 26.36C105.122 26.1787 104.722 26.088 104.188 26.088H102.012V32.712ZM115.481 35.144C114.532 35.144 113.689 34.952 112.953 34.568C112.217 34.184 111.636 33.656 111.209 32.984C110.793 32.3013 110.585 31.5227 110.585 30.648C110.585 29.7733 110.793 29 111.209 28.328C111.636 27.656 112.217 27.1333 112.953 26.76C113.689 26.376 114.532 26.184 115.481 26.184C116.43 26.184 117.273 26.376 118.009 26.76C118.756 27.1333 119.337 27.656 119.753 28.328C120.169 29 120.377 29.7733 120.377 30.648C120.377 31.5227 120.169 32.3013 119.753 32.984C119.337 33.656 118.756 34.184 118.009 34.568C117.273 34.952 116.43 35.144 115.481 35.144ZM115.481 32.728C115.833 32.728 116.142 32.648 116.409 32.488C116.686 32.328 116.905 32.0933 117.065 31.784C117.225 31.464 117.305 31.0853 117.305 30.648C117.305 30.2107 117.225 29.8427 117.065 29.544C116.905 29.2347 116.686 29 116.409 28.84C116.142 28.68 115.833 28.6 115.481 28.6C115.14 28.6 114.83 28.68 114.553 28.84C114.286 29 114.068 29.2347 113.897 29.544C113.737 29.8427 113.657 30.2107 113.657 30.648C113.657 31.0853 113.737 31.464 113.897 31.784C114.068 32.0933 114.286 32.328 114.553 32.488C114.83 32.648 115.14 32.728 115.481 32.728ZM126.237 35.144C125.288 35.144 124.445 34.952 123.709 34.568C122.973 34.184 122.392 33.656 121.965 32.984C121.549 32.3013 121.341 31.5227 121.341 30.648C121.341 29.7733 121.549 29 121.965 28.328C122.392 27.656 122.973 27.1333 123.709 26.76C124.445 26.376 125.288 26.184 126.237 26.184C127.187 26.184 128.029 26.376 128.765 26.76C129.512 27.1333 130.093 27.656 130.509 28.328C130.925 29 131.133 29.7733 131.133 30.648C131.133 31.5227 130.925 32.3013 130.509 32.984C130.093 33.656 129.512 34.184 128.765 34.568C128.029 34.952 127.187 35.144 126.237 35.144ZM126.237 32.728C126.589 32.728 126.899 32.648 127.165 32.488C127.443 32.328 127.661 32.0933 127.821 31.784C127.981 31.464 128.061 31.0853 128.061 30.648C128.061 30.2107 127.981 29.8427 127.821 29.544C127.661 29.2347 127.443 29 127.165 28.84C126.899 28.68 126.589 28.6 126.237 28.6C125.896 28.6 125.587 28.68 125.309 28.84C125.043 29 124.824 29.2347 124.653 29.544C124.493 29.8427 124.413 30.2107 124.413 30.648C124.413 31.0853 124.493 31.464 124.653 31.784C124.824 32.0933 125.043 32.328 125.309 32.488C125.587 32.648 125.896 32.728 126.237 32.728ZM135.17 33.4L135.25 29.768L138.786 26.328H142.386L138.466 30.376L136.914 31.624L135.17 33.4ZM132.642 35V23.128H135.682V35H132.642ZM139.01 35L136.354 31.672L138.242 29.336L142.69 35H139.01ZM143.71 35V26.328H146.75V35H143.71ZM145.23 25.368C144.676 25.368 144.228 25.2133 143.886 24.904C143.545 24.5947 143.374 24.2107 143.374 23.752C143.374 23.2933 143.545 22.9093 143.886 22.6C144.228 22.2907 144.676 22.136 145.23 22.136C145.785 22.136 146.233 22.2853 146.574 22.584C146.916 22.872 147.086 23.2453 147.086 23.704C147.086 24.184 146.916 24.584 146.574 24.904C146.244 25.2133 145.796 25.368 145.23 25.368ZM154.474 26.184C155.146 26.184 155.754 26.3227 156.298 26.6C156.842 26.8667 157.269 27.2827 157.578 27.848C157.898 28.4133 158.058 29.144 158.058 30.04V35H155.018V30.536C155.018 29.9173 154.89 29.4693 154.634 29.192C154.389 28.904 154.042 28.76 153.594 28.76C153.274 28.76 152.981 28.8347 152.714 28.984C152.447 29.1227 152.239 29.3413 152.09 29.64C151.941 29.9387 151.866 30.328 151.866 30.808V35H148.826V26.328H151.722V28.792L151.162 28.072C151.493 27.4427 151.946 26.9733 152.522 26.664C153.098 26.344 153.749 26.184 154.474 26.184ZM164.416 38.248C163.584 38.248 162.789 38.152 162.032 37.96C161.285 37.768 160.645 37.4853 160.112 37.112L161.216 34.984C161.579 35.272 162.027 35.496 162.56 35.656C163.104 35.8267 163.632 35.912 164.144 35.912C164.965 35.912 165.557 35.7307 165.92 35.368C166.283 35.016 166.464 34.4987 166.464 33.816V32.792L166.624 30.36L166.608 27.912V26.328H169.504V33.416C169.504 35.0587 169.061 36.2747 168.176 37.064C167.291 37.8533 166.037 38.248 164.416 38.248ZM163.888 34.552C163.12 34.552 162.411 34.3813 161.76 34.04C161.12 33.688 160.603 33.2027 160.208 32.584C159.824 31.9547 159.632 31.2133 159.632 30.36C159.632 29.5067 159.824 28.7707 160.208 28.152C160.603 27.5227 161.12 27.0373 161.76 26.696C162.411 26.3547 163.12 26.184 163.888 26.184C164.624 26.184 165.253 26.3333 165.776 26.632C166.299 26.92 166.693 27.3733 166.96 27.992C167.237 28.6107 167.376 29.4 167.376 30.36C167.376 31.32 167.237 32.1093 166.96 32.728C166.693 33.3467 166.299 33.8053 165.776 34.104C165.253 34.4027 164.624 34.552 163.888 34.552ZM164.608 32.136C164.971 32.136 165.291 32.0613 165.568 31.912C165.856 31.7627 166.08 31.5547 166.24 31.288C166.411 31.0213 166.496 30.712 166.496 30.36C166.496 30.008 166.411 29.6987 166.24 29.432C166.08 29.1653 165.856 28.9627 165.568 28.824C165.291 28.6747 164.971 28.6 164.608 28.6C164.245 28.6 163.92 28.6747 163.632 28.824C163.344 28.9627 163.115 29.1653 162.944 29.432C162.784 29.6987 162.704 30.008 162.704 30.36C162.704 30.712 162.784 31.0213 162.944 31.288C163.115 31.5547 163.344 31.7627 163.632 31.912C163.92 32.0613 164.245 32.136 164.608 32.136Z" fill="white"/>
</svg>
