<svg width="1440" height="900" viewBox="0 0 1440 900" fill="none" xmlns="http://www.w3.org/2000/svg">
<rect width="1440" height="900" fill="url(#paint0_linear_227_187)"/>
<ellipse cx="617.498" cy="674.528" rx="70.6327" ry="63.4818" fill="url(#paint1_linear_227_187)"/>
<g filter="url(#filter0_b_227_187)">
<path d="M653.619 449.52C653.619 687.246 437.775 887.039 162.31 887.039C-113.156 887.039 -329 687.246 -329 449.52C-329 211.793 -113.156 12 162.31 12C437.775 12 653.619 211.793 653.619 449.52Z" stroke="url(#paint2_radial_227_187)" stroke-opacity="0.7" stroke-width="80"/>
</g>
<g filter="url(#filter1_b_227_187)">
<path d="M562.52 447.586C562.52 641.63 386.431 804.241 162.309 804.241C-61.8127 804.241 -237.901 641.63 -237.901 447.586C-237.901 253.542 -61.8127 90.9302 162.309 90.9302C386.431 90.9302 562.52 253.542 562.52 447.586Z" stroke="url(#paint3_radial_227_187)" stroke-opacity="0.65" stroke-width="60"/>
</g>
<path d="M466.478 447.584C466.478 592.419 334.42 716.909 162.31 716.909C-9.8006 716.909 -141.858 592.419 -141.858 447.584C-141.858 302.749 -9.8006 178.26 162.31 178.26C334.42 178.26 466.478 302.749 466.478 447.584Z" stroke="url(#paint4_radial_227_187)" stroke-opacity="0.81" stroke-width="80"/>
<defs>
<filter id="filter0_b_227_187" x="-379" y="-38" width="1082.62" height="975.04" filterUnits="userSpaceOnUse" color-interpolation-filters="sRGB">
<feFlood flood-opacity="0" result="BackgroundImageFix"/>
<feGaussianBlur in="BackgroundImageFix" stdDeviation="5"/>
<feComposite in2="SourceAlpha" operator="in" result="effect1_backgroundBlur_227_187"/>
<feBlend mode="normal" in="SourceGraphic" in2="effect1_backgroundBlur_227_187" result="shape"/>
</filter>
<filter id="filter1_b_227_187" x="-277.901" y="50.9302" width="880.42" height="793.311" filterUnits="userSpaceOnUse" color-interpolation-filters="sRGB">
<feFlood flood-opacity="0" result="BackgroundImageFix"/>
<feGaussianBlur in="BackgroundImageFix" stdDeviation="5"/>
<feComposite in2="SourceAlpha" operator="in" result="effect1_backgroundBlur_227_187"/>
<feBlend mode="normal" in="SourceGraphic" in2="effect1_backgroundBlur_227_187" result="shape"/>
</filter>
<linearGradient id="paint0_linear_227_187" x1="1440" y1="900" x2="631.011" y2="-394.382" gradientUnits="userSpaceOnUse">
<stop stop-color="#42A7C3"/>
<stop offset="0.750282" stop-color="#42A7C3"/>
</linearGradient>
<linearGradient id="paint1_linear_227_187" x1="688.13" y1="738.01" x2="561.887" y2="597.546" gradientUnits="userSpaceOnUse">
<stop stop-color="#42A7C3"/>
<stop offset="0.750282" stop-color="#8ADBF0"/>
</linearGradient>
<radialGradient id="paint2_radial_227_187" cx="0" cy="0" r="1" gradientUnits="userSpaceOnUse" gradientTransform="translate(147.366 470.411) rotate(88.6534) scale(635.874 707.426)">
<stop offset="0.654764" stop-color="#E2F6FC" stop-opacity="0.36"/>
<stop offset="1" stop-color="#48B7D6" stop-opacity="0.84"/>
</radialGradient>
<radialGradient id="paint3_radial_227_187" cx="0" cy="0" r="1" gradientUnits="userSpaceOnUse" gradientTransform="translate(150.21 464.502) rotate(88.6534) scale(514.877 572.815)">
<stop offset="0.654764" stop-color="#E2F6FC" stop-opacity="0.36"/>
<stop offset="1" stop-color="#48B7D6" stop-opacity="0.84"/>
</radialGradient>
<radialGradient id="paint4_radial_227_187" cx="0" cy="0" r="1" gradientUnits="userSpaceOnUse" gradientTransform="translate(152.63 461.117) rotate(88.6534) scale(411.902 458.252)">
<stop offset="0.654764" stop-color="#E2F6FC" stop-opacity="0.36"/>
<stop offset="1" stop-color="#48B7D6" stop-opacity="0"/>
</radialGradient>
</defs>
</svg>
